# xmcd CD database file
#
# Track frame offsets:
#	150
#	20245
#	38364
#	56357
#	73423
#	89839
#	107905
#	127598
#	147855
#	162139
#	184914
#
# Disc length: 2722 seconds
#
# Revision: 3
# Processed by: cddbd v1.5.1PL0 Copyright (c) Steve Scherf et al.
# Submitted via: CDex 1.51
#
DISCID=970aa00b
DTITLE=Alison Moyet - Hometime
DYEAR=2002
DGENRE=Pop
TTITLE0=Yesterday's Flame
TTITLE1=Should I Fell That It's Over
TTITLE2=More
TTITLE3=Hometime
TTITLE4=Mary, Don't Keep Me Waiting
TTITLE5=Say It
TTITLE6=Ski
TTITLE7=If You Don't Come Back To Me
TTITLE8=Do You Ever Wonder
TTITLE9=The Train I Ride
TTITLE10=You Don't Have To Go
EXTD=YEAR: 2002
EXTT0=
EXTT1=
EXTT2=
EXTT3=
EXTT4=
EXTT5=
EXTT6=
EXTT7=
EXTT8=
EXTT9=
EXTT10=
PLAYORDER=
